<?xml version="1.0" encoding="utf-8"?>
<!-- Generator: Adobe Illustrator 21.1.0, SVG Export Plug-In . SVG Version: 6.00 Build 0)  -->
<svg version="1.1" id="_x31_" xmlns="http://www.w3.org/2000/svg" xmlns:xlink="http://www.w3.org/1999/xlink" x="0px" y="0px"
	 viewBox="0 0 128 71" style="enable-background:new 0 0 128 71;" xml:space="preserve">
<style type="text/css">
	.st0{fill:#42596B;}
	.st1{fill:#FAFFFF;}
	.st2{fill:#637A96;}
	.st3{fill:#968E8A;}
	.st4{fill:#CBF7FF;}
</style>
<g>
	<path class="st0" d="M116.671,28.835c-0.024,4.606-0.64,9.077-1.768,13.335H12.393c-1.177-4.433-1.795-9.096-1.768-13.9
		c0.051-9.815,2.772-19.004,7.472-26.875c0.281-0.47,0.567-0.933,0.861-1.395h89.374c0.297,0.462,0.586,0.93,0.867,1.403
		C113.99,9.432,116.725,18.82,116.671,28.835z"/>
	<path class="st1" d="M113.134,28.816c-0.024,4.628-0.683,9.107-1.895,13.354H16.056c-1.261-4.412-1.925-9.069-1.898-13.881
		c0.035-6.777,1.436-13.235,3.938-19.109c1.034-2.427,2.254-4.758,3.644-6.969C22.216,1.46,22.707,0.722,23.218,0h80.858
		c0.513,0.724,1.007,1.465,1.479,2.219c1.39,2.211,2.61,4.539,3.644,6.963C111.766,15.214,113.172,21.853,113.134,28.816z"/>
	<path class="st0" d="M21.741,0v42.17h-3.644V1.395c0.281-0.47,0.567-0.933,0.861-1.395H21.741z"/>
	<rect x="29.029" class="st0" width="3.644" height="42.17"/>
	<rect x="39.962" class="st0" width="3.644" height="42.17"/>
	<rect x="50.894" class="st0" width="3.644" height="42.17"/>
	<rect x="61.827" class="st0" width="3.641" height="42.17"/>
	<rect x="72.757" class="st0" width="3.644" height="42.17"/>
	<rect x="83.689" class="st0" width="3.644" height="42.17"/>
	<rect x="94.622" class="st0" width="3.644" height="42.17"/>
	<path class="st0" d="M109.199,1.403V42.17h-3.644V0h2.778C108.629,0.462,108.918,0.93,109.199,1.403z"/>
	<path class="st0" d="M66.038,64.407c-0.011,2.225-0.132,4.425-0.362,6.593H0V0h17.471C45.585,7.853,66.2,33.804,66.038,64.407z"/>
	<path class="st2" d="M59.972,64.374c-0.011,2.238-0.146,4.45-0.397,6.626H0V3.644C33.249,3.839,60.148,31.073,59.972,64.374z"/>
	<path class="st0" d="M52.671,64.334C52.66,66.591,52.506,68.816,52.22,71H0V10.953C29.205,11.148,52.827,35.08,52.671,64.334z"/>
	<path class="st1" d="M49.137,64.315c-0.011,2.268-0.178,4.498-0.486,6.685H0V14.495C27.248,14.687,49.28,37.018,49.137,64.315z"/>
	<path class="st0" d="M42.067,64.277c-0.014,2.287-0.205,4.533-0.567,6.723H0V21.574C23.331,21.769,42.192,40.9,42.067,64.277z"/>
	<path class="st1" d="M38.531,64.258c-0.014,2.3-0.224,4.552-0.618,6.742H0V25.116C21.374,25.308,38.645,42.838,38.531,64.258z"/>
	<path class="st0" d="M31.462,64.223c-0.014,2.327-0.275,4.595-0.764,6.777H0V32.195C17.46,32.387,31.556,46.717,31.462,64.223z"/>
	<path class="st1" d="M27.928,64.204c-0.013,2.344-0.31,4.62-0.864,6.796H0V35.736C15.503,35.926,28.009,48.655,27.928,64.204z"/>
	<path class="st0" d="M20.858,64.166c-0.013,2.392-0.424,4.69-1.166,6.834H0V42.819C11.586,43.008,20.92,52.534,20.858,64.166z"/>
	<path class="st1" d="M17.322,64.147c-0.014,2.433-0.518,4.747-1.417,6.853H0V46.357C9.629,46.547,17.373,54.473,17.322,64.147z"/>
	<path class="st0" d="M10.252,64.109C10.239,66.742,9.262,69.151,7.661,71H0V53.437C5.712,53.626,10.285,58.354,10.252,64.109z"/>
	<path class="st3" d="M6.716,64.091C6.7,67.521,4.249,70.37,1.01,71H0V56.981C3.76,57.165,6.738,60.285,6.716,64.091z"/>
	<path class="st0" d="M128,0v71H61.616c-0.251-2.398-0.373-4.836-0.359-7.301C61.419,33.341,81.975,7.783,109.825,0H128z"/>
	<path class="st2" d="M128,3.644V71H67.72c-0.275-2.384-0.41-4.809-0.397-7.269c0.178-33.309,27.383-60.266,60.645-60.087H128z"/>
	<path class="st0" d="M128,10.953V71H75.076c-0.313-2.365-0.467-4.779-0.453-7.231c0.157-29.279,24.07-52.972,53.308-52.816H128z"/>
	<path class="st1" d="M128,14.495V71H78.644c-0.335-2.354-0.499-4.763-0.486-7.212c0.146-27.327,22.464-49.439,49.753-49.293H128z"
		/>
	<path class="st0" d="M128,21.574V71H85.795c-0.386-2.336-0.58-4.731-0.567-7.174c0.124-23.423,19.255-42.376,42.645-42.251H128z"/>
	<path class="st1" d="M128,25.116V71H89.385c-0.421-2.322-0.634-4.712-0.621-7.155c0.113-21.472,17.649-38.845,39.09-38.732
		C127.903,25.113,127.951,25.113,128,25.116z"/>
	<path class="st0" d="M128,32.195V71H96.598c-0.513-2.29-0.777-4.674-0.764-7.118c0.092-17.568,14.439-31.782,31.982-31.69
		C127.878,32.193,127.938,32.193,128,32.195z"/>
	<path class="st1" d="M128,35.736V71h-27.771c-0.575-2.271-0.875-4.649-0.861-7.099c0.084-15.616,12.836-28.251,28.43-28.167
		C127.865,35.734,127.932,35.734,128,35.736z"/>
	<path class="st0" d="M128,42.819V71h-20.397c-0.767-2.211-1.18-4.59-1.166-7.061c0.062-11.71,9.629-21.188,21.323-21.126
		C127.841,42.814,127.919,42.814,128,42.819z"/>
	<path class="st1" d="M128,46.357V71h-16.607c-0.926-2.163-1.433-4.544-1.42-7.042c0.051-9.759,8.023-17.657,17.767-17.606
		C127.827,46.352,127.914,46.355,128,46.357z"/>
	<path class="st0" d="M128,53.437V71h-8.368c-1.625-1.876-2.602-4.33-2.589-7.004c0.03-5.855,4.813-10.594,10.66-10.564
		C127.803,53.432,127.9,53.435,128,53.437z"/>
	<path class="st3" d="M128,56.981V71h-1.709c-3.272-0.635-5.733-3.528-5.715-6.985c0.021-3.912,3.204-7.063,7.107-7.042
		C127.789,56.973,127.895,56.976,128,56.981z"/>
	<path class="st0" d="M123.597,71H3.695C14.434,48.471,37.468,32.925,64,33.069C90.284,33.209,112.967,48.704,123.597,71z"/>
	<path class="st4" d="M116.798,71H10.498c10.244-19.052,30.401-31.982,53.47-31.857C86.813,39.264,106.661,52.151,116.798,71z"/>
	<path class="st0" d="M108.335,71h-89.38c0.869-1.357,1.798-2.676,2.786-3.947c2.168-2.8,4.611-5.377,7.288-7.691
		c1.172-1.014,2.386-1.976,3.644-2.884c2.297-1.662,4.735-3.146,7.288-4.428c1.19-0.597,2.405-1.152,3.644-1.657
		c2.349-0.968,4.783-1.768,7.288-2.387c1.198-0.3,2.413-0.557,3.644-0.77c2.381-0.414,4.813-0.67,7.288-0.754
		c0.699-0.024,1.398-0.032,2.103-0.03c0.516,0.003,1.028,0.014,1.539,0.03c2.475,0.084,4.91,0.341,7.288,0.754
		c1.231,0.214,2.446,0.47,3.644,0.768c2.505,0.622,4.94,1.422,7.288,2.387c1.239,0.508,2.454,1.062,3.644,1.66
		c2.554,1.281,4.991,2.765,7.288,4.428c1.258,0.908,2.473,1.871,3.644,2.884c2.678,2.314,5.121,4.893,7.288,7.693
		C106.54,68.326,107.466,69.643,108.335,71z"/>
	<path class="st1" d="M104.075,71h-80.86c1.733-2.452,3.679-4.739,5.815-6.834c1.161-1.138,2.375-2.219,3.644-3.241
		c2.273-1.83,4.71-3.465,7.288-4.877c1.185-0.652,2.4-1.254,3.644-1.808c2.34-1.041,4.775-1.908,7.288-2.579
		c1.198-0.319,2.413-0.597,3.644-0.825c2.375-0.446,4.808-0.719,7.288-0.811c0.691-0.024,1.385-0.035,2.084-0.032
		c0.521,0.003,1.039,0.014,1.558,0.032c2.481,0.092,4.916,0.365,7.288,0.808c1.231,0.23,2.448,0.508,3.644,0.827
		c2.513,0.67,4.948,1.538,7.288,2.579c1.242,0.554,2.459,1.157,3.644,1.808c2.578,1.411,5.015,3.047,7.288,4.879
		c1.269,1.019,2.483,2.103,3.644,3.241C100.401,66.267,102.348,68.551,104.075,71z"/>
	<path class="st0" d="M21.741,67.053V71h-2.786C19.824,69.643,20.753,68.324,21.741,67.053z"/>
	<path class="st0" d="M32.674,56.478V71h-3.644V59.363C30.201,58.349,31.416,57.387,32.674,56.478z"/>
	<path class="st0" d="M43.606,50.393V71h-3.644V52.05C41.152,51.453,42.367,50.899,43.606,50.393z"/>
	<path class="st0" d="M54.539,47.236V71h-3.644V48.006C52.093,47.706,53.308,47.45,54.539,47.236z"/>
	<path class="st0" d="M65.468,46.482V71h-3.641V46.482c0.699-0.024,1.398-0.032,2.103-0.03
		C64.445,46.455,64.958,46.466,65.468,46.482z"/>
	<path class="st0" d="M76.401,48.004V71h-3.644V47.236C73.988,47.45,75.202,47.706,76.401,48.004z"/>
	<path class="st0" d="M87.334,52.05V71h-3.644V50.391C84.928,50.899,86.143,51.453,87.334,52.05z"/>
	<path class="st0" d="M98.266,59.363V71h-3.644V56.478C95.88,57.387,97.095,58.349,98.266,59.363z"/>
	<path class="st0" d="M108.335,71h-2.78v-3.944C106.54,68.326,107.466,69.643,108.335,71z"/>
	<path class="st0" d="M128,71v-2.43h0c-6.292-0.034-12.386,0.816-18.167,2.43H128z"/>
	<path class="st0" d="M0,71v-2.43h0c6.292-0.034,12.386,0.816,18.167,2.43H0z"/>
</g>
</svg>
